<?xml version="1.0" encoding="utf-8"?>
<svg viewBox="4.263 96.67 157.939 36.364" xmlns="http://www.w3.org/2000/svg">
  <g id="layer1" style="" transform="matrix(0.116051, 0, 0, 0.116051, 12.575164, 103.227831)">
    <path style="fill:#33475b;fill-opacity:1;stroke-width:3.48158" d="M 203.41846,-56.507199 H -33.329061 c -21.237664,0 -38.297431,16.015227 -38.297431,35.860303 V 159.35086 c 0,19.84494 17.059767,35.86017 38.297431,35.86017 h 25.0673809 v 53.26825 c 0,3.13335 2.0889491,6.26684 5.222437,7.65943 1.3925886,0.6961 2.43699662,0.6961 3.82971662,0.6961 2.08894798,0 4.17789698,-0.6961 5.91866498,-1.74077 L 85.741,195.2109 h 117.67746 c 21.23767,0 38.2973,-16.01536 38.2973,-35.86031 V -20.647159 c 0,-19.845076 -17.05963,-35.860303 -38.2973,-35.860303 z M 21.679958,95.289672 c 4.526077,5.570618 10.444742,8.355798 17.407816,8.355798 7.311385,0 12.88187,-2.43713 16.711586,-7.311258 2.08895,-2.78531 3.82985,-6.61502 5.22244,-11.83746 h 21.23766 c -1.74077,11.1411 -6.61502,20.193258 -13.92641,27.156328 -7.31125,6.96321 -17.059634,10.44474 -28.897096,10.44474 -14.622639,0 -25.763609,-4.52594 -34.1194035,-13.92628 -8.3557936,-9.400198 -12.5336906,-22.282068 -12.5336906,-38.645478 0,-17.75612 4.8741256,-31.33422 14.2744586,-41.08274 8.3557945,-8.35579 18.4523565,-12.533686 31.3342265,-12.533686 17.059765,0 29.245275,5.570616 37.252895,16.711586 4.17789,6.26685 6.61502,12.53369 6.9632,18.80054 H 61.36998 c -1.39272,-4.87413 -3.13349,-8.70398 -5.22244,-11.14097 -3.829716,-4.1779 -9.400201,-6.26685 -17.059766,-6.26685 -7.659434,0 -13.578099,3.13336 -17.755996,9.4002 -4.526077,6.26685 -6.615025,14.97082 -6.615025,26.45997 0,11.1411 2.437128,19.84508 6.963205,25.41556 z M 167.90634,112.69762 c -7.31138,6.26685 -17.40795,9.05215 -30.28982,9.05215 -13.22991,0 -24.02284,-3.13348 -31.6824,-9.05215 C 98.27469,106.77896 94.44497,98.423162 94.44497,87.630242 h 20.19312 c 0.6961,4.52608 2.08895,8.00761 3.82972,10.44474 3.48167,4.177898 9.40033,6.266848 18.10431,6.266848 5.2223,0 9.4002,-0.6961 12.53369,-1.74077 5.91866,-2.08895 9.05202,-5.918668 9.05202,-11.837458 0,-3.48154 -1.39259,-5.91867 -4.52595,-7.65944 -3.13349,-1.74077 -7.65956,-3.48153 -14.27459,-4.87425 l -11.14097,-2.437 c -10.79292,-2.43713 -18.1043,-4.87426 -22.2822,-7.65957 -6.96307,-4.52607 -10.44474,-12.18551 -10.44474,-21.93389 0,-9.05215 3.48167,-16.71159 10.09669,-22.630251 6.6149,-5.918797 16.71159,-9.052154 29.59333,-9.052154 10.79292,0 20.19325,2.785309 27.85268,8.355794 7.65944,5.570481 11.83734,13.926281 12.18552,24.719201 h -20.54131 c -0.34871,-6.26685 -3.13336,-10.44474 -8.35579,-12.88187 -3.48154,-1.74077 -7.65944,-2.43713 -12.53369,-2.43713 -5.57049,0 -10.09656,1.0448 -13.5781,3.48167 -3.48167,2.08895 -4.87426,5.2223 -4.87426,9.4002 0,3.48167 1.74077,6.26685 4.87426,8.00762 2.08895,1.0448 6.61489,2.43712 13.5781,4.17789 l 17.75612,4.1779 c 7.65944,1.7409 13.5781,4.1779 17.40782,7.31138 5.91867,4.87426 9.05215,11.83733 9.05215,20.88949 0.6961,9.05215 -2.7853,16.711588 -10.09656,22.978428 z" id="path1422"/>
  </g>
  <path d="M 52.128 118.556 L 49.658 118.556 L 49.658 101.636 L 52.128 101.636 L 52.128 118.556 ZM 62.085 106.556 C 64.885 106.556 66.285 108.133 66.285 111.286 L 66.285 118.556 L 63.865 118.556 L 63.865 111.406 C 63.865 110.413 63.669 109.683 63.275 109.216 C 62.882 108.756 62.269 108.526 61.435 108.526 C 60.462 108.526 59.679 108.829 59.085 109.436 C 58.492 110.043 58.195 110.859 58.195 111.886 L 58.195 118.556 L 55.775 118.556 L 55.775 106.846 L 58.155 106.846 L 58.155 108.716 C 58.535 108.009 59.069 107.473 59.755 107.106 C 60.449 106.739 61.225 106.556 62.085 106.556 ZM 87.794 114.426 L 87.794 101.636 L 90.114 101.636 L 90.114 118.556 L 88.224 118.556 L 78.554 105.786 L 78.554 118.556 L 76.224 118.556 L 76.224 101.636 L 78.094 101.636 L 87.794 114.426 ZM 101.614 106.846 L 104.034 106.846 L 104.034 118.556 L 101.684 118.556 L 101.684 116.656 C 101.317 117.329 100.811 117.843 100.164 118.196 C 99.511 118.549 98.784 118.726 97.984 118.726 C 95.137 118.726 93.714 117.156 93.714 114.016 L 93.714 106.846 L 96.144 106.846 L 96.144 113.996 C 96.144 114.943 96.334 115.639 96.714 116.086 C 97.101 116.533 97.694 116.756 98.494 116.756 C 99.434 116.756 100.191 116.453 100.764 115.846 C 101.331 115.239 101.614 114.429 101.614 113.416 L 101.614 106.846 ZM 112.959 116.856 C 113.332 116.856 113.692 116.829 114.039 116.776 L 113.919 118.626 C 113.519 118.693 113.105 118.726 112.679 118.726 C 111.159 118.726 110.025 118.353 109.279 117.606 C 108.532 116.866 108.159 115.789 108.159 114.376 L 108.159 108.716 L 105.879 108.716 L 105.879 106.846 L 108.159 106.846 L 108.159 103.316 L 110.589 103.316 L 110.589 106.846 L 113.799 106.846 L 113.799 108.716 L 110.589 108.716 L 110.589 114.286 C 110.589 115.999 111.379 116.856 112.959 116.856 ZM 120.02 118.726 C 117.987 118.726 116.363 118.229 115.15 117.236 L 115.89 115.486 C 117.09 116.413 118.49 116.876 120.09 116.876 C 120.877 116.876 121.477 116.743 121.89 116.476 C 122.303 116.216 122.51 115.846 122.51 115.366 C 122.51 114.946 122.37 114.616 122.09 114.376 C 121.81 114.136 121.327 113.936 120.64 113.776 L 118.7 113.346 C 117.66 113.106 116.877 112.716 116.35 112.176 C 115.817 111.629 115.55 110.939 115.55 110.106 C 115.55 109.053 115.98 108.196 116.84 107.536 C 117.693 106.883 118.817 106.556 120.21 106.556 C 121.043 106.556 121.837 106.689 122.59 106.956 C 123.337 107.216 123.983 107.586 124.53 108.066 L 123.79 109.776 C 122.637 108.863 121.443 108.406 120.21 108.406 C 119.477 108.406 118.897 108.549 118.47 108.836 C 118.043 109.123 117.83 109.516 117.83 110.016 C 117.83 110.416 117.963 110.739 118.23 110.986 C 118.497 111.233 118.917 111.419 119.49 111.546 L 121.48 112.006 C 122.62 112.259 123.453 112.656 123.98 113.196 C 124.507 113.729 124.77 114.429 124.77 115.296 C 124.77 116.349 124.343 117.183 123.49 117.796 C 122.63 118.416 121.473 118.726 120.02 118.726 ZM 133.767 106.556 C 136.567 106.556 137.967 108.133 137.967 111.286 L 137.967 118.556 L 135.547 118.556 L 135.547 111.406 C 135.547 110.413 135.35 109.683 134.957 109.216 C 134.564 108.756 133.95 108.526 133.117 108.526 C 132.144 108.526 131.36 108.829 130.767 109.436 C 130.174 110.043 129.877 110.859 129.877 111.886 L 129.877 118.556 L 127.457 118.556 L 127.457 101.636 L 129.877 101.636 L 129.877 108.616 C 130.277 107.949 130.814 107.439 131.487 107.086 C 132.16 106.733 132.92 106.556 133.767 106.556 ZM 151.31 112.336 L 151.31 113.106 L 143.03 113.106 C 143.21 115.586 144.443 116.826 146.73 116.826 C 148.07 116.826 149.286 116.386 150.38 115.506 L 151.12 117.216 C 150.573 117.676 149.9 118.043 149.1 118.316 C 148.3 118.589 147.486 118.726 146.66 118.726 C 144.786 118.726 143.31 118.189 142.23 117.116 C 141.15 116.043 140.61 114.563 140.61 112.676 C 140.61 111.476 140.846 110.413 141.32 109.486 C 141.786 108.559 142.45 107.839 143.31 107.326 C 144.163 106.813 145.133 106.556 146.22 106.556 C 147.806 106.556 149.053 107.069 149.96 108.096 C 150.86 109.116 151.31 110.529 151.31 112.336 Z M 146.27 108.336 C 145.343 108.336 144.603 108.626 144.05 109.206 C 143.496 109.793 143.166 110.629 143.06 111.716 L 149.22 111.716 C 149.173 110.629 148.9 109.793 148.4 109.206 C 147.893 108.626 147.183 108.336 146.27 108.336 ZM 156.394 118.556 L 153.974 118.556 L 153.974 101.636 L 156.394 101.636 L 156.394 118.556 ZM 162.202 118.556 L 159.782 118.556 L 159.782 101.636 L 162.202 101.636 L 162.202 118.556 Z" style="fill: rgb(51, 71, 91); white-space: pre;"/>
</svg>